<svg width="24" height="24" viewBox="0 0 24 24" fill="none" xmlns="http://www.w3.org/2000/svg">
<path fill-rule="evenodd" clip-rule="evenodd" d="M20.7071 4.29289C21.0976 4.68342 21.0976 5.31658 20.7071 5.70711L5.70711 20.7071C5.31658 21.0976 4.68342 21.0976 4.29289 20.7071C3.90237 20.3166 3.90237 19.6834 4.29289 19.2929L19.2929 4.29289C19.6834 3.90237 20.3166 3.90237 20.7071 4.29289Z" fill="#E54335"/>
<path fill-rule="evenodd" clip-rule="evenodd" d="M4.29289 4.29289C4.68342 3.90237 5.31658 3.90237 5.70711 4.29289L20.7071 19.2929C21.0976 19.6834 21.0976 20.3166 20.7071 20.7071C20.3166 21.0976 19.6834 21.0976 19.2929 20.7071L4.29289 5.70711C3.90237 5.31658 3.90237 4.68342 4.29289 4.29289Z" fill="#E54335"/>
</svg>
